<?xml version="1.0" encoding="UTF-8" standalone="no"?>
<!-- Created with Inkscape (http://www.inkscape.org/) -->

<svg
   xmlns:dc="http://purl.org/dc/elements/1.1/"
   xmlns:cc="http://creativecommons.org/ns#"
   xmlns:rdf="http://www.w3.org/1999/02/22-rdf-syntax-ns#"
   xmlns:svg="http://www.w3.org/2000/svg"
   xmlns="http://www.w3.org/2000/svg"
   xmlns:sodipodi="http://sodipodi.sourceforge.net/DTD/sodipodi-0.dtd"
   xmlns:inkscape="http://www.inkscape.org/namespaces/inkscape"
   width="137.33994mm"
   height="91.935471mm"
   viewBox="0 0 137.33994 91.935471"
   version="1.1"
   id="svg8"
   inkscape:version="0.92.4 (5da689c313, 2019-01-14)"
   sodipodi:docname="vicbirdinglogo.svg">
  <defs
     id="defs2">
    <inkscape:path-effect
       effect="bspline"
       id="path-effect853"
       is_visible="true"
       weight="33.333333"
       steps="2"
       helper_size="0"
       apply_no_weight="true"
       apply_with_weight="true"
       only_selected="false" />
    <inkscape:path-effect
       effect="bspline"
       id="path-effect848"
       is_visible="true"
       weight="33.333333"
       steps="2"
       helper_size="0"
       apply_no_weight="true"
       apply_with_weight="true"
       only_selected="false" />
    <inkscape:path-effect
       effect="bspline"
       id="path-effect836"
       is_visible="true"
       weight="33.333333"
       steps="2"
       helper_size="0"
       apply_no_weight="true"
       apply_with_weight="true"
       only_selected="false" />
    <inkscape:path-effect
       effect="bspline"
       id="path-effect832"
       is_visible="true"
       weight="33.333333"
       steps="2"
       helper_size="0"
       apply_no_weight="true"
       apply_with_weight="true"
       only_selected="false" />
  </defs>
  <sodipodi:namedview
     id="base"
     pagecolor="#ffffff"
     bordercolor="#666666"
     borderopacity="1.0"
     inkscape:pageopacity="0.0"
     inkscape:pageshadow="2"
     inkscape:zoom="0.98994949"
     inkscape:cx="488.57415"
     inkscape:cy="169.2245"
     inkscape:document-units="mm"
     inkscape:current-layer="layer1"
     showgrid="false"
     inkscape:window-width="1920"
     inkscape:window-height="1001"
     inkscape:window-x="-9"
     inkscape:window-y="-9"
     inkscape:window-maximized="1" />
  <metadata
     id="metadata5">
    <rdf:RDF>
      <cc:Work
         rdf:about="">
        <dc:format>image/svg+xml</dc:format>
        <dc:type
           rdf:resource="http://purl.org/dc/dcmitype/StillImage" />
        <dc:title />
      </cc:Work>
    </rdf:RDF>
  </metadata>
  <g
     inkscape:label="Layer 1"
     inkscape:groupmode="layer"
     id="layer1"
     transform="translate(-20.045288,-103.76421)">
    <path
       style="fill:#dfa76a;fill-opacity:1;stroke:#000000;stroke-width:0;stroke-linecap:butt;stroke-linejoin:miter;stroke-miterlimit:4;stroke-dasharray:none;stroke-opacity:1"
       d="M 0 0 L 0 271.73047 L 43.435547 315.16797 L 64.650391 293.95312 L 152.86914 344.88867 L 228.16992 269.58789 L 235.84375 298.22852 L 212.4043 291.94727 L 238.14453 306.80859 L 238.14453 306.81055 L 308.57617 347.47266 L 388.63477 267.41602 L 488.91406 267.41602 L 519.08008 237.24805 L 411.52734 175.15234 L 397.50781 122.82812 L 335.32227 139.49219 L 235.10352 112.63867 L 224.6543 151.63086 L 100.65625 27.632812 L 92.789062 56.998047 L 59.880859 0 L 0 0 z M 129.36328 129.36133 C 133.04104 129.36133 136.18782 129.99841 138.80469 131.27148 C 141.45692 132.50919 143.82764 134.47257 145.91406 137.16016 L 140.60938 143.25977 C 140.22039 143.64877 139.77829 144.00204 139.2832 144.32031 C 138.78812 144.60321 138.23984 144.74414 137.63867 144.74414 C 136.93141 144.74414 136.32907 144.60321 135.83398 144.32031 C 135.37426 144.00204 134.86268 143.6835 134.29688 143.36523 C 133.73107 143.0116 133.04188 142.69307 132.22852 142.41016 C 131.41517 142.0919 130.35336 141.93359 129.04492 141.93359 C 127.41822 141.93359 125.82746 142.41043 124.27148 143.36523 C 122.75087 144.28467 121.38984 145.62833 120.1875 147.39648 C 118.98515 149.16464 118.01215 151.34038 117.26953 153.92188 C 116.56227 156.50338 116.20898 159.43779 116.20898 162.72656 C 116.20898 164.56544 116.42134 166.17552 116.8457 167.55469 C 117.27006 168.89848 117.85308 170.02978 118.5957 170.94922 C 119.33833 171.83329 120.20514 172.50512 121.19531 172.96484 C 122.18548 173.42456 123.24533 173.6543 124.37695 173.6543 C 126.07438 173.6543 127.43541 173.42456 128.46094 172.96484 C 129.52183 172.46976 130.44271 171.93886 131.2207 171.37305 C 131.99869 170.80724 132.72263 170.29567 133.39453 169.83594 C 134.06643 169.34086 134.87918 169.0918 135.83398 169.0918 C 136.36443 169.0918 136.87796 169.21535 137.37305 169.46289 C 137.90349 169.71043 138.34559 170.04634 138.69922 170.4707 L 142.94336 175.45703 C 141.1752 177.402 139.47826 179.04683 137.85156 180.39062 C 136.22486 181.73442 134.54334 182.8136 132.81055 183.62695 C 131.07775 184.4403 129.22252 185.02332 127.24219 185.37695 C 125.29722 185.76594 123.13886 185.96095 120.76953 185.96094 C 117.55149 185.96094 114.65182 185.41267 112.07031 184.31641 C 109.48881 183.22016 107.27833 181.66414 105.43945 179.64844 C 103.63593 177.63275 102.24017 175.19253 101.25 172.32812 C 100.25983 169.46372 99.763672 166.2455 99.763672 162.67383 C 99.763672 158.18271 100.48957 153.92202 101.93945 149.89062 C 103.4247 145.85924 105.47493 142.32247 108.0918 139.28125 C 110.74403 136.24002 113.87539 133.83457 117.48242 132.06641 C 121.08946 130.2629 125.04898 129.36133 129.36328 129.36133 z M 17.634766 130.10547 L 31.214844 130.10547 C 32.346464 130.10547 33.248022 130.38732 33.919922 130.95312 C 34.591822 131.48357 34.999175 132.1554 35.140625 132.96875 L 38.746094 157.63477 C 39.064364 159.7212 39.330789 161.77141 39.542969 163.78711 C 39.755149 165.76744 39.930816 167.76555 40.072266 169.78125 C 40.708806 167.80091 41.398005 165.82214 42.140625 163.8418 C 42.918615 161.86147 43.733321 159.79192 44.582031 157.63477 L 54.236328 132.96875 C 54.554588 132.12003 55.120244 131.43083 55.933594 130.90039 C 56.746944 130.36994 57.631128 130.10547 58.585938 130.10547 L 71.634766 130.10547 L 44.900391 185.11133 L 31.001953 185.11133 L 17.634766 130.10547 z M 78.490234 130.10547 L 94.722656 130.10547 L 88.144531 185.11133 L 71.912109 185.11133 L 78.490234 130.10547 z "
       transform="matrix(0.26458333,0,0,0.26458333,20.045288,103.76421)"
       id="path834" />
    <text
       id="text862"
       y="174.39412"
       x="23.827005"
       style="font-style:normal;font-variant:normal;font-weight:normal;font-stretch:normal;font-size:28.0694561px;line-height:1.25;font-family:'Lato Black';-inkscape-font-specification:'Lato Black, ';letter-spacing:0px;word-spacing:0px;fill:#ffffff;fill-opacity:1;stroke:none;stroke-width:0.26458335"
       xml:space="preserve"><tspan
         style="font-style:normal;font-variant:normal;font-weight:normal;font-stretch:normal;font-family:'Lato Black';-inkscape-font-specification:'Lato Black, ';fill:#ffffff;fill-opacity:1;stroke-width:0.26458335"
         y="174.39412"
         x="23.827005"
         id="tspan860"
         sodipodi:role="line">BIRDING</tspan></text>
  </g>
</svg>
