<?xml version="1.0" encoding="UTF-8" standalone="no"?>
<!-- Created with Inkscape (http://www.inkscape.org/) -->

<svg
   xmlns:dc="http://purl.org/dc/elements/1.1/"
   xmlns:cc="http://creativecommons.org/ns#"
   xmlns:rdf="http://www.w3.org/1999/02/22-rdf-syntax-ns#"
   xmlns:svg="http://www.w3.org/2000/svg"
   xmlns="http://www.w3.org/2000/svg"
   xmlns:sodipodi="http://sodipodi.sourceforge.net/DTD/sodipodi-0.dtd"
   xmlns:inkscape="http://www.inkscape.org/namespaces/inkscape"
   width="137.33994mm"
   height="91.935471mm"
   viewBox="0 0 137.33994 91.935471"
   version="1.1"
   id="svg8"
   inkscape:version="0.92.4 (5da689c313, 2019-01-14)"
   sodipodi:docname="vicbirdinglogo.svg">
  <defs
     id="defs2">
    <inkscape:path-effect
       effect="bspline"
       id="path-effect853"
       is_visible="true"
       weight="33.333333"
       steps="2"
       helper_size="0"
       apply_no_weight="true"
       apply_with_weight="true"
       only_selected="false" />
    <inkscape:path-effect
       effect="bspline"
       id="path-effect848"
       is_visible="true"
       weight="33.333333"
       steps="2"
       helper_size="0"
       apply_no_weight="true"
       apply_with_weight="true"
       only_selected="false" />
    <inkscape:path-effect
       effect="bspline"
       id="path-effect836"
       is_visible="true"
       weight="33.333333"
       steps="2"
       helper_size="0"
       apply_no_weight="true"
       apply_with_weight="true"
       only_selected="false" />
    <inkscape:path-effect
       effect="bspline"
       id="path-effect832"
       is_visible="true"
       weight="33.333333"
       steps="2"
       helper_size="0"
       apply_no_weight="true"
       apply_with_weight="true"
       only_selected="false" />
  </defs>
  <sodipodi:namedview
     id="base"
     pagecolor="#ffffff"
     bordercolor="#666666"
     borderopacity="1.0"
     inkscape:pageopacity="0.0"
     inkscape:pageshadow="2"
     inkscape:zoom="0.7"
     inkscape:cx="541.39846"
     inkscape:cy="222.70337"
     inkscape:document-units="mm"
     inkscape:current-layer="layer1"
     showgrid="false"
     inkscape:window-width="1920"
     inkscape:window-height="1001"
     inkscape:window-x="-9"
     inkscape:window-y="-9"
     inkscape:window-maximized="1" />
  <metadata
     id="metadata5">
    <rdf:RDF>
      <cc:Work
         rdf:about="">
        <dc:format>image/svg+xml</dc:format>
        <dc:type
           rdf:resource="http://purl.org/dc/dcmitype/StillImage" />
        <dc:title></dc:title>
      </cc:Work>
    </rdf:RDF>
  </metadata>
  <g
     inkscape:label="Layer 1"
     inkscape:groupmode="layer"
     id="layer1"
     transform="translate(-20.045288,-103.76421)">
    <path
       style="fill:#dfa76a;fill-opacity:1;stroke:#000000;stroke-width:0;stroke-linecap:butt;stroke-linejoin:miter;stroke-miterlimit:4;stroke-dasharray:none;stroke-opacity:1"
       d="m 75.761719,392.17969 v 271.73047 l 43.435551,43.4375 21.21484,-21.21485 88.21875,50.93555 75.30078,-75.30078 7.67383,28.64062 -23.43945,-6.28125 25.74023,14.86133 v 0.002 l 70.43164,40.66211 80.05859,-80.05664 h 100.2793 l 30.16602,-30.16797 -107.55274,-62.0957 -14.01953,-52.32422 -62.18555,16.66407 -100.21875,-26.85352 -10.44921,38.99219 -123.99805,-123.99805 -7.86719,29.36523 -32.9082,-56.99804 z"
       transform="scale(0.26458333)"
       id="path834"
       inkscape:connector-curvature="0" />
    <path
       style="font-style:italic;font-variant:normal;font-weight:normal;font-stretch:normal;font-size:28.0694561px;line-height:1.25;font-family:'Lato Black';-inkscape-font-specification:'Lato Black, Italic';letter-spacing:0px;word-spacing:0px;fill:#69719d;fill-opacity:1;stroke:none;stroke-width:1.00000012"
       d="m 205.125,521.54102 c -4.3143,0 -8.27382,0.90156 -11.88086,2.70507 -3.60703,1.76816 -6.73839,4.17362 -9.39062,7.21485 -2.61687,3.04122 -4.6671,6.57798 -6.15235,10.60937 -1.44988,4.0314 -2.17578,8.29209 -2.17578,12.78321 0,3.57167 0.49616,6.78988 1.48633,9.65429 0.99017,2.86441 2.38593,5.30462 4.18945,7.32031 1.83888,2.0157 4.04936,3.57172 6.63086,4.66797 2.58151,1.09626 5.48118,1.64453 8.69922,1.64453 2.36933,10e-6 4.52769,-0.19499 6.47266,-0.58398 1.98033,-0.35363 3.83556,-0.93665 5.56836,-1.75 1.73279,-0.81335 3.41431,-1.89253 5.04101,-3.23633 1.6267,-1.3438 3.32364,-2.98862 5.0918,-4.93359 l -4.24414,-4.98633 c -0.35363,-0.42436 -0.79573,-0.76027 -1.32617,-1.00781 -0.49509,-0.24754 -1.00862,-0.3711 -1.53907,-0.3711 -0.9548,0 -1.76755,0.24906 -2.43945,0.74414 -0.6719,0.45973 -1.39584,0.9713 -2.17383,1.53711 -0.77799,0.56581 -1.69887,1.09672 -2.75976,1.5918 -1.02553,0.45972 -2.38656,0.68945 -4.08399,0.68945 -1.13162,0 -2.19147,-0.22973 -3.18164,-0.68945 -0.99017,-0.45972 -1.85698,-1.13155 -2.59961,-2.01562 -0.74262,-0.91944 -1.32564,-2.05074 -1.75,-3.39453 -0.42436,-1.37917 -0.63672,-2.98925 -0.63672,-4.82813 0,-3.28877 0.35329,-6.22318 1.06055,-8.80469 0.74262,-2.5815 1.71562,-4.75723 2.91797,-6.52539 1.20234,-1.76815 2.56337,-3.11181 4.08398,-4.03125 1.55598,-0.9548 3.14674,-1.43164 4.77344,-1.43164 1.30844,0 2.37024,0.1583 3.18359,0.47656 0.81336,0.28291 1.50255,0.60145 2.06836,0.95508 0.56581,0.31827 1.07739,0.63681 1.53711,0.95508 0.49509,0.2829 1.09743,0.42383 1.80469,0.42383 0.60117,0 1.14945,-0.14093 1.64453,-0.42383 0.49509,-0.31827 0.93718,-0.67155 1.32617,-1.06055 l 5.30469,-6.09961 c -2.08642,-2.68759 -4.45714,-4.65096 -7.10937,-5.88867 -2.61687,-1.27307 -5.76365,-1.91015 -9.44141,-1.91015 z m -111.728516,0.74414 13.367186,55.00586 h 13.89844 l 26.73437,-55.00586 h -13.04882 c -0.95481,0 -1.839,0.26447 -2.65235,0.79492 -0.81335,0.53044 -1.379,1.21964 -1.69726,2.06836 l -9.6543,24.66601 c -0.84871,2.15715 -1.66342,4.2267 -2.44141,6.20703 -0.74262,1.98034 -1.43182,3.95912 -2.06836,5.93946 -0.14145,-2.0157 -0.31711,-4.01381 -0.52929,-5.99414 -0.21218,-2.0157 -0.47861,-4.06592 -0.79688,-6.15235 l -3.60547,-24.66601 c -0.14145,-0.81335 -0.5488,-1.48518 -1.2207,-2.01563 -0.6719,-0.56581 -1.57346,-0.84765 -2.70508,-0.84765 z m 60.855466,0 -6.57812,55.00586 h 16.23242 l 6.57813,-55.00586 z"
       transform="scale(0.26458333)"
       id="text858"
       inkscape:connector-curvature="0" />
    <text
       id="text862"
       y="174.39412"
       x="23.827005"
       style="font-style:normal;font-variant:normal;font-weight:normal;font-stretch:normal;font-size:28.0694561px;line-height:1.25;font-family:'Lato Black';-inkscape-font-specification:'Lato Black, ';letter-spacing:0px;word-spacing:0px;fill:#ffffff;fill-opacity:1;stroke:none;stroke-width:0.26458335"
       xml:space="preserve"><tspan
         style="font-style:normal;font-variant:normal;font-weight:normal;font-stretch:normal;font-family:'Lato Black';-inkscape-font-specification:'Lato Black, ';fill:#ffffff;fill-opacity:1;stroke-width:0.26458335"
         y="174.39412"
         x="23.827005"
         id="tspan860"
         sodipodi:role="line">BIRDING</tspan></text>
  </g>
</svg>
